<mxfile host="app.diagrams.net" modified="2024-02-01T09:16:59.789Z" agent="Mozilla/5.0 (Macintosh; Intel Mac OS X 10.15; rv:121.0) Gecko/20100101 Firefox/121.0" etag="exnGiwOl116JFyYUxwDz" version="23.1.0" type="github">
  <diagram name="Page-1" id="e7e014a7-5840-1c2e-5031-d8a46d1fe8dd">
    <mxGraphModel dx="1371" dy="769" grid="1" gridSize="10" guides="1" tooltips="1" connect="1" arrows="1" fold="1" page="1" pageScale="1" pageWidth="1169" pageHeight="826" background="none" math="0" shadow="0">
      <root>
        <mxCell id="0" />
        <mxCell id="1" parent="0" />
        <mxCell id="e0m3DWCjjOkC1Vlyh7Jg-41" value="客户端请求" style="rounded=0;whiteSpace=wrap;html=1;" vertex="1" parent="1">
          <mxGeometry x="100" y="130" width="120" height="60" as="geometry" />
        </mxCell>
        <mxCell id="e0m3DWCjjOkC1Vlyh7Jg-42" value="应用服务器" style="rounded=0;whiteSpace=wrap;html=1;" vertex="1" parent="1">
          <mxGeometry x="410" y="130" width="120" height="60" as="geometry" />
        </mxCell>
        <mxCell id="e0m3DWCjjOkC1Vlyh7Jg-43" value="阿里云OSS服务器" style="rounded=1;whiteSpace=wrap;html=1;" vertex="1" parent="1">
          <mxGeometry x="910" y="130" width="120" height="60" as="geometry" />
        </mxCell>
        <mxCell id="e0m3DWCjjOkC1Vlyh7Jg-50" value="" style="group" vertex="1" connectable="0" parent="1">
          <mxGeometry x="155" y="200" width="10" height="360" as="geometry" />
        </mxCell>
        <mxCell id="e0m3DWCjjOkC1Vlyh7Jg-44" value="" style="html=1;points=[[0,0,0,0,5],[0,1,0,0,-5],[1,0,0,0,5],[1,1,0,0,-5]];perimeter=orthogonalPerimeter;outlineConnect=0;targetShapes=umlLifeline;portConstraint=eastwest;newEdgeStyle={&quot;curved&quot;:0,&quot;rounded&quot;:0};" vertex="1" parent="e0m3DWCjjOkC1Vlyh7Jg-50">
          <mxGeometry width="10" height="318.85714285714283" as="geometry" />
        </mxCell>
        <mxCell id="e0m3DWCjjOkC1Vlyh7Jg-45" value="" style="endArrow=none;dashed=1;html=1;rounded=0;entryX=0.5;entryY=1;entryDx=0;entryDy=0;" edge="1" parent="e0m3DWCjjOkC1Vlyh7Jg-50" target="e0m3DWCjjOkC1Vlyh7Jg-41">
          <mxGeometry width="50" height="50" relative="1" as="geometry">
            <mxPoint x="5" y="359.99999999999994" as="sourcePoint" />
            <mxPoint x="455" y="246.85714285714283" as="targetPoint" />
          </mxGeometry>
        </mxCell>
        <mxCell id="e0m3DWCjjOkC1Vlyh7Jg-52" value="" style="html=1;points=[[0,0,0,0,5],[0,1,0,0,-5],[1,0,0,0,5],[1,1,0,0,-5]];perimeter=orthogonalPerimeter;outlineConnect=0;targetShapes=umlLifeline;portConstraint=eastwest;newEdgeStyle={&quot;curved&quot;:0,&quot;rounded&quot;:0};" vertex="1" parent="1">
          <mxGeometry x="965" y="210" width="10" height="310" as="geometry" />
        </mxCell>
        <mxCell id="e0m3DWCjjOkC1Vlyh7Jg-53" value="" style="endArrow=none;dashed=1;html=1;rounded=0;entryX=0.5;entryY=1;entryDx=0;entryDy=0;" edge="1" parent="1">
          <mxGeometry width="50" height="50" relative="1" as="geometry">
            <mxPoint x="969.5" y="560" as="sourcePoint" />
            <mxPoint x="969.5" y="190" as="targetPoint" />
          </mxGeometry>
        </mxCell>
        <mxCell id="e0m3DWCjjOkC1Vlyh7Jg-54" value="" style="group" vertex="1" connectable="0" parent="1">
          <mxGeometry x="460" y="210" width="20" height="360" as="geometry" />
        </mxCell>
        <mxCell id="e0m3DWCjjOkC1Vlyh7Jg-55" value="" style="html=1;points=[[0,0,0,0,5],[0,1,0,0,-5],[1,0,0,0,5],[1,1,0,0,-5]];perimeter=orthogonalPerimeter;outlineConnect=0;targetShapes=umlLifeline;portConstraint=eastwest;newEdgeStyle={&quot;curved&quot;:0,&quot;rounded&quot;:0};" vertex="1" parent="e0m3DWCjjOkC1Vlyh7Jg-54">
          <mxGeometry x="5" width="10" height="318.85714285714283" as="geometry" />
        </mxCell>
        <mxCell id="e0m3DWCjjOkC1Vlyh7Jg-58" value="" style="html=1;points=[[0,0,0,0,5],[0,1,0,0,-5],[1,0,0,0,5],[1,1,0,0,-5]];perimeter=orthogonalPerimeter;outlineConnect=0;targetShapes=umlLifeline;portConstraint=eastwest;newEdgeStyle={&quot;curved&quot;:0,&quot;rounded&quot;:0};" vertex="1" parent="e0m3DWCjjOkC1Vlyh7Jg-54">
          <mxGeometry x="-2.5" y="50" width="25" height="180" as="geometry" />
        </mxCell>
        <mxCell id="e0m3DWCjjOkC1Vlyh7Jg-57" value="请求授权一个临时STS用于上传XXX文件到XXX路径" style="html=1;verticalAlign=bottom;startArrow=oval;startFill=1;endArrow=block;startSize=8;curved=0;rounded=0;" edge="1" parent="1" target="e0m3DWCjjOkC1Vlyh7Jg-55">
          <mxGeometry width="60" relative="1" as="geometry">
            <mxPoint x="170" y="240" as="sourcePoint" />
            <mxPoint x="610" y="460" as="targetPoint" />
          </mxGeometry>
        </mxCell>
        <mxCell id="e0m3DWCjjOkC1Vlyh7Jg-56" value="" style="endArrow=none;dashed=1;html=1;rounded=0;entryX=0.5;entryY=1;entryDx=0;entryDy=0;" edge="1" parent="1" target="e0m3DWCjjOkC1Vlyh7Jg-42">
          <mxGeometry width="50" height="50" relative="1" as="geometry">
            <mxPoint x="470" y="570" as="sourcePoint" />
            <mxPoint x="920" y="456.85714285714283" as="targetPoint" />
          </mxGeometry>
        </mxCell>
        <mxCell id="e0m3DWCjjOkC1Vlyh7Jg-64" value="&lt;div&gt;Mysql数据库&lt;/div&gt;&lt;div&gt;记录申请上传者的openId&lt;/div&gt;" style="text;html=1;align=center;verticalAlign=middle;resizable=0;points=[];autosize=1;strokeColor=none;fillColor=none;" vertex="1" parent="1">
          <mxGeometry x="490" y="270" width="160" height="40" as="geometry" />
        </mxCell>
        <mxCell id="e0m3DWCjjOkC1Vlyh7Jg-65" value="阿里云STS授权服务器" style="rounded=1;whiteSpace=wrap;html=1;" vertex="1" parent="1">
          <mxGeometry x="680" y="130" width="120" height="60" as="geometry" />
        </mxCell>
        <mxCell id="e0m3DWCjjOkC1Vlyh7Jg-66" value="" style="html=1;points=[[0,0,0,0,5],[0,1,0,0,-5],[1,0,0,0,5],[1,1,0,0,-5]];perimeter=orthogonalPerimeter;outlineConnect=0;targetShapes=umlLifeline;portConstraint=eastwest;newEdgeStyle={&quot;curved&quot;:0,&quot;rounded&quot;:0};" vertex="1" parent="1">
          <mxGeometry x="740" y="210" width="10" height="310" as="geometry" />
        </mxCell>
        <mxCell id="e0m3DWCjjOkC1Vlyh7Jg-67" value="" style="endArrow=none;dashed=1;html=1;rounded=0;entryX=0.5;entryY=1;entryDx=0;entryDy=0;" edge="1" parent="1">
          <mxGeometry width="50" height="50" relative="1" as="geometry">
            <mxPoint x="744.5" y="560" as="sourcePoint" />
            <mxPoint x="744.5" y="190" as="targetPoint" />
          </mxGeometry>
        </mxCell>
        <mxCell id="e0m3DWCjjOkC1Vlyh7Jg-69" value="" style="curved=1;endArrow=classic;html=1;rounded=0;" edge="1" parent="1">
          <mxGeometry width="50" height="50" relative="1" as="geometry">
            <mxPoint x="482.5" y="290" as="sourcePoint" />
            <mxPoint x="482.5" y="310" as="targetPoint" />
            <Array as="points">
              <mxPoint x="550" y="300" />
            </Array>
          </mxGeometry>
        </mxCell>
        <mxCell id="e0m3DWCjjOkC1Vlyh7Jg-73" value="请求临时凭证" style="html=1;verticalAlign=bottom;endArrow=block;curved=0;rounded=0;" edge="1" parent="1" source="e0m3DWCjjOkC1Vlyh7Jg-58" target="e0m3DWCjjOkC1Vlyh7Jg-66">
          <mxGeometry x="-0.4757" y="10" width="80" relative="1" as="geometry">
            <mxPoint x="540" y="460" as="sourcePoint" />
            <mxPoint x="620" y="460" as="targetPoint" />
            <mxPoint as="offset" />
          </mxGeometry>
        </mxCell>
        <mxCell id="e0m3DWCjjOkC1Vlyh7Jg-74" value="&lt;div&gt;携带Policy参数控制生成的STS权限、&lt;/div&gt;&lt;div&gt;控制STS可用时间&lt;/div&gt;" style="text;html=1;align=center;verticalAlign=middle;resizable=0;points=[];autosize=1;strokeColor=none;fillColor=none;" vertex="1" parent="1">
          <mxGeometry x="495" y="345" width="220" height="40" as="geometry" />
        </mxCell>
        <mxCell id="e0m3DWCjjOkC1Vlyh7Jg-75" value="return" style="html=1;verticalAlign=bottom;endArrow=open;dashed=1;endSize=8;curved=0;rounded=0;entryX=0.9;entryY=0.778;entryDx=0;entryDy=0;entryPerimeter=0;" edge="1" parent="1" source="e0m3DWCjjOkC1Vlyh7Jg-66" target="e0m3DWCjjOkC1Vlyh7Jg-58">
          <mxGeometry relative="1" as="geometry">
            <mxPoint x="620" y="460" as="sourcePoint" />
            <mxPoint x="540" y="460" as="targetPoint" />
          </mxGeometry>
        </mxCell>
        <mxCell id="e0m3DWCjjOkC1Vlyh7Jg-76" value="返回临时凭证STS" style="text;html=1;align=center;verticalAlign=middle;resizable=0;points=[];autosize=1;strokeColor=none;fillColor=none;" vertex="1" parent="1">
          <mxGeometry x="520" y="398" width="120" height="30" as="geometry" />
        </mxCell>
        <mxCell id="e0m3DWCjjOkC1Vlyh7Jg-77" value="return" style="html=1;verticalAlign=bottom;endArrow=open;dashed=1;endSize=8;curved=0;rounded=0;entryX=0.9;entryY=0.778;entryDx=0;entryDy=0;entryPerimeter=0;" edge="1" parent="1" source="e0m3DWCjjOkC1Vlyh7Jg-58">
          <mxGeometry relative="1" as="geometry">
            <mxPoint x="425" y="422" as="sourcePoint" />
            <mxPoint x="165" y="422" as="targetPoint" />
          </mxGeometry>
        </mxCell>
        <mxCell id="e0m3DWCjjOkC1Vlyh7Jg-78" value="返回临时凭证STS" style="text;html=1;align=center;verticalAlign=middle;resizable=0;points=[];autosize=1;strokeColor=none;fillColor=none;" vertex="1" parent="1">
          <mxGeometry x="205" y="420" width="120" height="30" as="geometry" />
        </mxCell>
        <mxCell id="e0m3DWCjjOkC1Vlyh7Jg-79" value="dispatch" style="html=1;verticalAlign=bottom;startArrow=oval;startFill=1;endArrow=block;startSize=8;curved=0;rounded=0;" edge="1" parent="1" target="e0m3DWCjjOkC1Vlyh7Jg-52">
          <mxGeometry width="60" relative="1" as="geometry">
            <mxPoint x="170" y="460" as="sourcePoint" />
            <mxPoint x="610" y="460" as="targetPoint" />
          </mxGeometry>
        </mxCell>
        <mxCell id="e0m3DWCjjOkC1Vlyh7Jg-80" value="携带STS进行文件上传" style="text;html=1;align=center;verticalAlign=middle;resizable=0;points=[];autosize=1;strokeColor=none;fillColor=none;" vertex="1" parent="1">
          <mxGeometry x="585" y="440" width="140" height="30" as="geometry" />
        </mxCell>
        <mxCell id="e0m3DWCjjOkC1Vlyh7Jg-81" value="return" style="html=1;verticalAlign=bottom;endArrow=open;dashed=1;endSize=8;curved=0;rounded=0;" edge="1" parent="1" source="e0m3DWCjjOkC1Vlyh7Jg-52">
          <mxGeometry relative="1" as="geometry">
            <mxPoint x="620" y="460" as="sourcePoint" />
            <mxPoint x="160" y="490" as="targetPoint" />
            <Array as="points">
              <mxPoint x="580" y="490" />
            </Array>
          </mxGeometry>
        </mxCell>
        <mxCell id="e0m3DWCjjOkC1Vlyh7Jg-82" value="返回文件" style="text;html=1;align=center;verticalAlign=middle;resizable=0;points=[];autosize=1;strokeColor=none;fillColor=none;" vertex="1" parent="1">
          <mxGeometry x="525" y="488" width="70" height="30" as="geometry" />
        </mxCell>
      </root>
    </mxGraphModel>
  </diagram>
</mxfile>
